<?xml version="1.0" encoding="UTF-8"?>
<!DOCTYPE svg PUBLIC "-//W3C//DTD SVG 1.1//EN" "http://www.w3.org/Graphics/SVG/1.1/DTD/svg11.dtd">
<svg xmlns="http://www.w3.org/2000/svg" version="1.1" width="1192px" height="616px" style="shape-rendering:geometricPrecision; text-rendering:geometricPrecision; image-rendering:optimizeQuality; fill-rule:evenodd; clip-rule:evenodd" xmlns:xlink="http://www.w3.org/1999/xlink">
<g><path style="opacity:0.993" fill="#7c3e66" d="M 429.5,479.5 C 429.5,479.167 429.5,478.833 429.5,478.5C 429.833,331.332 429.5,184.332 428.5,37.5C 427.504,53.6581 427.17,69.9915 427.5,86.5C 401.833,86.5 376.167,86.5 350.5,86.5C 350.83,69.9915 350.496,53.6581 349.5,37.5C 348.504,53.6581 348.17,69.9915 348.5,86.5C 325.164,86.6666 301.831,86.5 278.5,86C 276.187,85.338 273.854,84.838 271.5,84.5C 271.833,68.8192 271.499,53.1525 270.5,37.5C 269.501,52.8189 269.167,68.1522 269.5,83.5C 251.948,80.6791 234.281,79.8457 216.5,81C 208.695,81.856 201.029,83.356 193.5,85.5C 192.501,69.8475 192.167,54.1808 192.5,38.5C 192.44,37.9569 192.107,37.6236 191.5,37.5C 190.501,53.8197 190.167,70.1531 190.5,86.5C 164.833,86.5 139.167,86.5 113.5,86.5C 113.5,70.5 113.5,54.5 113.5,38.5C 113.44,37.9569 113.107,37.6236 112.5,37.5C 111.501,53.8197 111.167,70.1531 111.5,86.5C 8.83333,87.1667 8.83333,87.8333 111.5,88.5C 111.667,106.836 111.5,125.17 111,143.5C 105.281,152.942 100.114,162.609 95.5,172.5C 75.1557,172.167 54.8224,172.5 34.5,173.5C 54.8501,173.84 74.8501,174.84 94.5,176.5C 84.2626,203.148 79.5959,230.815 80.5,259.5C 19.1667,260.167 19.1667,260.833 80.5,261.5C 80.0856,303.18 90.5856,341.846 112,377.5C 130.606,402.28 154.439,419.946 183.5,430.5C 160.339,431.498 137.006,431.831 113.5,431.5C 112.833,371.5 112.167,371.5 111.5,431.5C 8.83333,432.167 8.83333,432.833 111.5,433.5C 111.5,448.833 111.5,464.167 111.5,479.5C 78.4983,479.667 45.4983,479.5 12.5,479C 6.05784,477.383 1.72451,473.55 -0.5,467.5C -0.5,322.833 -0.5,178.167 -0.5,33.5C 2.0678,28.4363 6.0678,24.9363 11.5,23C 155.833,22.3333 300.167,22.3333 444.5,23C 451.021,25.206 454.854,29.706 456,36.5C 456.667,179.5 456.667,322.5 456,465.5C 454.264,472.237 450.097,476.737 443.5,479C 438.845,479.499 434.179,479.666 429.5,479.5 Z"/></g>
<g><path style="opacity:1" fill="#c2aeb6" d="M 113.5,38.5 C 112.833,54.5 112.167,70.5 111.5,86.5C 111.167,70.1531 111.501,53.8197 112.5,37.5C 113.107,37.6236 113.44,37.9569 113.5,38.5 Z"/></g>
<g><path style="opacity:1" fill="#d7d1cf" d="M 349.5,37.5 C 349.5,54.1667 349.5,70.8333 349.5,87.5C 375.672,87.8311 401.672,87.4978 427.5,86.5C 427.17,69.9915 427.504,53.6581 428.5,37.5C 428.5,54.5 428.5,71.5 428.5,88.5C 428.167,88.5 427.833,88.5 427.5,88.5C 401.833,88.5 376.167,88.5 350.5,88.5C 349.833,88.5 349.167,88.5 348.5,88.5C 328.164,88.3334 307.831,88.5 287.5,89C 310.915,97.6051 330.915,111.105 347.5,129.5C 348.5,130.5 349.5,131.5 350.5,132.5C 359.942,144.374 367.609,157.374 373.5,171.5C 373.328,172.492 373.662,173.158 374.5,173.5C 374.328,174.492 374.662,175.158 375.5,175.5C 379.374,184.124 382.041,193.124 383.5,202.5C 385.743,203.812 388.41,204.478 391.5,204.5C 394.355,204.497 397.022,204.164 399.5,203.5C 401.5,203.5 403.5,203.5 405.5,203.5C 405.5,205.833 405.5,208.167 405.5,210.5C 398.5,210.5 391.5,210.5 384.5,210.5C 386.229,216.782 386.563,223.115 385.5,229.5C 383.929,230.309 382.262,230.643 380.5,230.5C 379.687,224.185 379.021,217.852 378.5,211.5C 350.5,212.5 322.5,213.5 294.5,214.5C 295.523,220.591 296.857,226.591 298.5,232.5C 296.194,232.993 293.861,233.326 291.5,233.5C 290.495,227.49 289.495,221.49 288.5,215.5C 280.912,215.917 273.412,215.917 266,215.5C 265.257,213.559 265.424,211.726 266.5,210C 272.55,209.495 278.55,208.661 284.5,207.5C 278.679,192.68 268.679,181.68 254.5,174.5C 252.626,173.715 250.626,173.048 248.5,172.5C 242.5,171.167 236.5,171.167 230.5,172.5C 228.374,173.048 226.374,173.715 224.5,174.5C 209.116,180.72 198.616,191.72 193,207.5C 183.961,230.311 180.961,253.978 184,278.5C 185.67,307.042 198.837,328.208 223.5,342C 239.701,347.411 254.368,344.744 267.5,334C 274.511,327.492 280.178,319.992 284.5,311.5C 279.337,309.735 274.004,309.068 268.5,309.5C 268.5,307.5 268.5,305.5 268.5,303.5C 274.833,303.5 281.167,303.5 287.5,303.5C 287.992,298.359 289.325,293.526 291.5,289C 293.112,288.28 294.612,288.446 296,289.5C 296.048,293.539 295.548,297.539 294.5,301.5C 293.596,302.209 293.263,303.209 293.5,304.5C 295.5,304.5 297.5,304.5 299.5,304.5C 315.843,304.955 332.177,305.622 348.5,306.5C 349.167,279.833 349.833,279.833 350.5,306.5C 359.83,307.167 369.163,307.333 378.5,307C 380.021,301.232 381.354,295.398 382.5,289.5C 386.211,288.846 388.211,290.346 388.5,294C 387.816,298.918 386.816,303.752 385.5,308.5C 391.167,308.5 396.833,308.5 402.5,308.5C 402.5,310.833 402.5,313.167 402.5,315.5C 396.167,315.5 389.833,315.5 383.5,315.5C 378.13,341.899 367.13,365.566 350.5,386.5C 349.5,387.5 348.5,388.5 347.5,389.5C 330.55,408.652 309.883,422.318 285.5,430.5C 284.527,430.987 283.527,431.487 282.5,432C 304.497,432.5 326.497,432.667 348.5,432.5C 349.167,432.5 349.833,432.5 350.5,432.5C 376.672,432.169 402.672,432.502 428.5,433.5C 428.167,433.5 427.833,433.5 427.5,433.5C 401.833,433.5 376.167,433.5 350.5,433.5C 349.833,433.5 349.167,433.5 348.5,433.5C 323.122,433.176 297.789,433.509 272.5,434.5C 271.501,449.485 271.167,464.485 271.5,479.5C 270.833,484.833 270.167,484.833 269.5,479.5C 269.5,464.833 269.5,450.167 269.5,435.5C 243.66,440.032 217.994,439.365 192.5,433.5C 191.833,433.5 191.167,433.5 190.5,433.5C 164.833,433.5 139.167,433.5 113.5,433.5C 113.5,448.833 113.5,464.167 113.5,479.5C 112.833,484.833 112.167,484.833 111.5,479.5C 111.5,464.167 111.5,448.833 111.5,433.5C 8.83333,432.833 8.83333,432.167 111.5,431.5C 112.167,371.5 112.833,371.5 113.5,431.5C 137.663,432.663 161.997,432.83 186.5,432C 185.756,430.961 184.756,430.461 183.5,430.5C 154.439,419.946 130.606,402.28 112,377.5C 90.5856,341.846 80.0856,303.18 80.5,261.5C 19.1667,260.833 19.1667,260.167 80.5,259.5C 79.5959,230.815 84.2626,203.148 94.5,176.5C 95.4345,175.432 95.7678,174.099 95.5,172.5C 100.114,162.609 105.281,152.942 111,143.5C 111.5,125.17 111.667,106.836 111.5,88.5C 8.83333,87.8333 8.83333,87.1667 111.5,86.5C 112.167,70.5 112.833,54.5 113.5,38.5C 113.5,54.5 113.5,70.5 113.5,86.5C 139.167,86.5 164.833,86.5 190.5,86.5C 191.167,70.5 191.833,54.5 192.5,38.5C 192.167,54.1808 192.501,69.8475 193.5,85.5C 201.029,83.356 208.695,81.856 216.5,81C 234.281,79.8457 251.948,80.6791 269.5,83.5C 269.167,68.1522 269.501,52.8189 270.5,37.5C 271.499,53.1525 271.833,68.8192 271.5,84.5C 273.854,84.838 276.187,85.338 278.5,86C 301.831,86.5 325.164,86.6666 348.5,86.5C 348.17,69.9915 348.504,53.6581 349.5,37.5 Z"/></g>
<g><path style="opacity:1" fill="#aa889b" d="M 192.5,38.5 C 191.833,54.5 191.167,70.5 190.5,86.5C 190.167,70.1531 190.501,53.8197 191.5,37.5C 192.107,37.6236 192.44,37.9569 192.5,38.5 Z"/></g>
<g><path style="opacity:1" fill="#bba3ae" d="M 349.5,37.5 C 350.496,53.6581 350.83,69.9915 350.5,86.5C 376.167,86.5 401.833,86.5 427.5,86.5C 401.672,87.4978 375.672,87.8311 349.5,87.5C 349.5,70.8333 349.5,54.1667 349.5,37.5 Z"/></g>
<g><path style="opacity:1" fill="#7c3e66" d="M 113.5,88.5 C 136.502,88.3334 159.502,88.5 182.5,89C 175.588,91.061 168.921,93.7276 162.5,97C 155.505,102.166 148.172,106.833 140.5,111C 135.281,116.186 129.781,121.02 124,125.5C 120.667,130.167 117.333,134.833 114,139.5C 113.5,122.503 113.333,105.503 113.5,88.5 Z"/></g>
<g><path style="opacity:1" fill="#82476c" d="M 217.5,106.5 C 223.69,101.144 229.357,95.3103 234.5,89C 238.833,88.3333 243.167,88.3333 247.5,89C 237.076,94.2899 227.076,100.123 217.5,106.5 Z"/></g>
<g><path style="opacity:1" fill="#7c3f66" d="M 348.5,88.5 C 348.829,102.344 348.496,116.01 347.5,129.5C 330.915,111.105 310.915,97.6051 287.5,89C 307.831,88.5 328.164,88.3334 348.5,88.5 Z"/></g>
<g><path style="opacity:1" fill="#b9a0ac" d="M 348.5,88.5 C 349.167,88.5 349.833,88.5 350.5,88.5C 350.5,103.167 350.5,117.833 350.5,132.5C 349.5,131.5 348.5,130.5 347.5,129.5C 348.496,116.01 348.829,102.344 348.5,88.5 Z"/></g>
<g><path style="opacity:1" fill="#7c3e66" d="M 350.5,88.5 C 376.167,88.5 401.833,88.5 427.5,88.5C 427.5,116.5 427.5,144.5 427.5,172.5C 409.423,172.819 391.423,172.486 373.5,171.5C 367.609,157.374 359.942,144.374 350.5,132.5C 350.5,117.833 350.5,103.167 350.5,88.5 Z"/></g>
<g><path style="opacity:1" fill="#8a5576" d="M 206.5,88.5 C 207.873,88.3433 209.207,88.51 210.5,89C 206.633,91.6979 202.633,94.1979 198.5,96.5C 197.708,94.8051 198.042,93.1385 199.5,91.5C 201.885,90.3385 204.219,89.3385 206.5,88.5 Z"/></g>
<g><path style="opacity:1" fill="#854c70" d="M 265.5,90.5 C 268.673,90.4012 271.673,91.0678 274.5,92.5C 270.775,95.1999 266.775,97.0333 262.5,98C 264.747,96.005 265.747,93.505 265.5,90.5 Z"/></g>
<g><path style="opacity:1" fill="#82496d" d="M 288.5,97.5 C 292.243,97.4592 292.41,98.1259 289,99.5C 288.536,98.9056 288.369,98.2389 288.5,97.5 Z"/></g>
<g><path style="opacity:1" fill="#a17990" d="M 217.5,106.5 C 216.746,108.446 215.412,109.279 213.5,109C 214.471,107.519 215.804,106.685 217.5,106.5 Z"/></g>
<g><path style="opacity:1" fill="#854d71" d="M 331.5,123.5 C 334.26,124.423 336.26,126.256 337.5,129C 332.025,131.414 326.691,133.747 321.5,136C 325.807,132.535 329.141,128.369 331.5,123.5 Z"/></g>
<g><path style="opacity:1" fill="#a68297" d="M 235.5,125.5 C 237.975,125.747 237.975,126.413 235.5,127.5C 234.537,127.03 234.537,126.363 235.5,125.5 Z"/></g>
<g><path style="opacity:1" fill="#a68196" d="M 170.5,137.5 C 171.002,135.915 172.002,135.415 173.5,136C 172.756,137.039 171.756,137.539 170.5,137.5 Z"/></g>
<g><path style="opacity:1" fill="#854e71" d="M 344.5,136.5 C 347.3,138.476 346.967,139.309 343.5,139C 344.252,138.329 344.586,137.496 344.5,136.5 Z"/></g>
<g><path style="opacity:1" fill="#a68297" d="M 170.5,137.5 C 170.027,138.906 169.027,139.573 167.5,139.5C 167.973,138.094 168.973,137.427 170.5,137.5 Z"/></g>
<g><path style="opacity:1" fill="#a68397" d="M 167.5,139.5 C 167.027,140.906 166.027,141.573 164.5,141.5C 164.973,140.094 165.973,139.427 167.5,139.5 Z"/></g>
<g><path style="opacity:1" fill="#a68397" d="M 164.5,141.5 C 164.027,142.906 163.027,143.573 161.5,143.5C 161.973,142.094 162.973,141.427 164.5,141.5 Z"/></g>
<g><path style="opacity:1" fill="#a9869a" d="M 161.5,143.5 C 161.027,144.906 160.027,145.573 158.5,145.5C 158.973,144.094 159.973,143.427 161.5,143.5 Z"/></g>
<g><path style="opacity:1" fill="#a9869a" d="M 158.5,145.5 C 157.998,147.085 156.998,147.585 155.5,147C 156.244,145.961 157.244,145.461 158.5,145.5 Z"/></g>
<g><path style="opacity:1" fill="#82486d" d="M 352.5,147.5 C 353.479,148.765 354.479,150.099 355.5,151.5C 353.209,152.59 350.876,153.09 348.5,153C 349.965,151.226 351.298,149.392 352.5,147.5 Z"/></g>
<g><path style="opacity:1" fill="#9c718a" d="M 118.5,158.5 C 119.239,158.369 119.906,158.536 120.5,159C 118.246,160.377 116.08,161.877 114,163.5C 113.517,162.552 113.351,161.552 113.5,160.5C 115.553,160.598 117.22,159.931 118.5,158.5 Z"/></g>
<g><path style="opacity:1" fill="#834a6e" d="M 108.5,161.5 C 109.5,161.5 110.5,161.5 111.5,161.5C 111.657,162.873 111.49,164.207 111,165.5C 109.027,166.64 107.193,167.973 105.5,169.5C 105.167,169.333 104.833,169.167 104.5,169C 105.973,166.552 107.307,164.052 108.5,161.5 Z"/></g>
<g><path style="opacity:1" fill="#854d70" d="M 271.5,161.5 C 272.239,161.369 272.906,161.536 273.5,162C 270.5,165 267.5,168 264.5,171C 262.7,171.236 261.034,170.736 259.5,169.5C 263.91,167.306 267.91,164.639 271.5,161.5 Z"/></g>
<g><path style="opacity:1" fill="#a88498" d="M 154.5,168.5 C 155.002,166.915 156.002,166.415 157.5,167C 156.756,168.039 155.756,168.539 154.5,168.5 Z"/></g>
<g><path style="opacity:1" fill="#834a6e" d="M 363.5,165.5 C 364.787,168.075 366.121,170.741 367.5,173.5C 364.157,173.327 360.824,173.827 357.5,175C 360.151,172.195 362.151,169.029 363.5,165.5 Z"/></g>
<g><path style="opacity:1" fill="#a0778f" d="M 154.5,168.5 C 154.027,169.906 153.027,170.573 151.5,170.5C 151.973,169.094 152.973,168.427 154.5,168.5 Z"/></g>
<g><path style="opacity:1" fill="#a78398" d="M 248.5,172.5 C 242.5,173.833 236.5,173.833 230.5,172.5C 236.5,171.167 242.5,171.167 248.5,172.5 Z"/></g>
<g><path style="opacity:1" fill="#c2aeb6" d="M 230.5,172.5 C 236.5,173.833 242.5,173.833 248.5,172.5C 250.626,173.048 252.626,173.715 254.5,174.5C 244.5,174.5 234.5,174.5 224.5,174.5C 226.374,173.715 228.374,173.048 230.5,172.5 Z"/></g>
<g><path style="opacity:1" fill="#ab8a9c" d="M 373.5,171.5 C 391.423,172.486 409.423,172.819 427.5,172.5C 410.008,173.497 392.341,173.83 374.5,173.5C 373.662,173.158 373.328,172.492 373.5,171.5 Z"/></g>
<g><path style="opacity:1" fill="#baa1ad" d="M 95.5,172.5 C 95.7678,174.099 95.4345,175.432 94.5,176.5C 74.8501,174.84 54.8501,173.84 34.5,173.5C 54.8224,172.5 75.1557,172.167 95.5,172.5 Z"/></g>
<g><path style="opacity:1" fill="#c5b3ba" d="M 427.5,88.5 C 427.833,88.5 428.167,88.5 428.5,88.5C 428.5,145.833 428.5,203.167 428.5,260.5C 412.5,260.5 396.5,260.5 380.5,260.5C 395.991,259.504 411.658,259.17 427.5,259.5C 427.5,231.167 427.5,202.833 427.5,174.5C 409.992,174.17 392.659,174.503 375.5,175.5C 374.662,175.158 374.328,174.492 374.5,173.5C 392.341,173.83 410.008,173.497 427.5,172.5C 427.5,144.5 427.5,116.5 427.5,88.5 Z"/></g>
<g><path style="opacity:1" fill="#7c3e66" d="M 224.5,174.5 C 234.5,174.5 244.5,174.5 254.5,174.5C 268.679,181.68 278.679,192.68 284.5,207.5C 278.55,208.661 272.55,209.495 266.5,210C 265.424,211.726 265.257,213.559 266,215.5C 273.412,215.917 280.912,215.917 288.5,215.5C 289.495,221.49 290.495,227.49 291.5,233.5C 293.861,233.326 296.194,232.993 298.5,232.5C 296.857,226.591 295.523,220.591 294.5,214.5C 322.5,213.5 350.5,212.5 378.5,211.5C 379.021,217.852 379.687,224.185 380.5,230.5C 382.262,230.643 383.929,230.309 385.5,229.5C 386.563,223.115 386.229,216.782 384.5,210.5C 391.5,210.5 398.5,210.5 405.5,210.5C 405.5,208.167 405.5,205.833 405.5,203.5C 403.5,203.5 401.5,203.5 399.5,203.5C 394.073,203.782 388.74,203.449 383.5,202.5C 382.041,193.124 379.374,184.124 375.5,175.5C 392.659,174.503 409.992,174.17 427.5,174.5C 427.5,202.833 427.5,231.167 427.5,259.5C 411.658,259.17 395.991,259.504 380.5,260.5C 395.991,261.496 411.658,261.83 427.5,261.5C 427.5,289.833 427.5,318.167 427.5,346.5C 360.833,346.833 360.833,347.167 427.5,347.5C 427.5,375.5 427.5,403.5 427.5,431.5C 401.833,431.5 376.167,431.5 350.5,431.5C 350.5,416.5 350.5,401.5 350.5,386.5C 367.13,365.566 378.13,341.899 383.5,315.5C 389.833,315.5 396.167,315.5 402.5,315.5C 402.5,313.167 402.5,310.833 402.5,308.5C 396.833,308.5 391.167,308.5 385.5,308.5C 386.816,303.752 387.816,298.918 388.5,294C 388.211,290.346 386.211,288.846 382.5,289.5C 381.354,295.398 380.021,301.232 378.5,307C 369.163,307.333 359.83,307.167 350.5,306.5C 349.833,279.833 349.167,279.833 348.5,306.5C 332.177,305.622 315.843,304.955 299.5,304.5C 297.469,304.028 295.802,303.028 294.5,301.5C 295.548,297.539 296.048,293.539 296,289.5C 294.612,288.446 293.112,288.28 291.5,289C 289.325,293.526 287.992,298.359 287.5,303.5C 281.167,303.5 274.833,303.5 268.5,303.5C 268.5,305.5 268.5,307.5 268.5,309.5C 274.004,309.068 279.337,309.735 284.5,311.5C 280.178,319.992 274.511,327.492 267.5,334C 254.368,344.744 239.701,347.411 223.5,342C 198.837,328.208 185.67,307.042 184,278.5C 180.961,253.978 183.961,230.311 193,207.5C 198.616,191.72 209.116,180.72 224.5,174.5 Z"/></g>
<g><path style="opacity:1" fill="#9d728b" d="M 369.5,180.5 C 372.481,183.122 372.148,183.789 368.5,182.5C 368.863,181.817 369.196,181.15 369.5,180.5 Z"/></g>
<g><path style="opacity:1" fill="#8d5979" d="M 151.5,170.5 C 142.039,177.616 132.039,183.949 121.5,189.5C 130.961,182.384 140.961,176.051 151.5,170.5 Z"/></g>
<g><path style="opacity:1" fill="#905f7d" d="M 284.5,188.5 C 286.657,189.053 286.49,190.053 284,191.5C 283.53,190.423 283.697,189.423 284.5,188.5 Z"/></g>
<g><path style="opacity:1" fill="#8b5576" d="M 96.5,190.5 C 101.238,190.602 101.238,191.935 96.5,194.5C 95.3744,193.192 95.3744,191.858 96.5,190.5 Z"/></g>
<g><path style="opacity:1" fill="#946481" d="M 121.5,189.5 C 121.027,190.906 120.027,191.573 118.5,191.5C 118.973,190.094 119.973,189.427 121.5,189.5 Z"/></g>
<g><path style="opacity:1" fill="#a37c93" d="M 118.5,191.5 C 117.998,193.085 116.998,193.585 115.5,193C 116.244,191.961 117.244,191.461 118.5,191.5 Z"/></g>
<g><path style="opacity:1" fill="#af8fa0" d="M 316.5,197.5 C 316.5,197.167 316.5,196.833 316.5,196.5C 317.562,194.243 319.228,193.077 321.5,193C 319.963,194.707 318.296,196.207 316.5,197.5 Z"/></g>
<g><path style="opacity:1" fill="#80456b" d="M 374.5,196.5 C 376.04,198.838 376.706,201.505 376.5,204.5C 372.486,204.666 368.486,204.499 364.5,204C 368.439,202.209 371.772,199.709 374.5,196.5 Z"/></g>
<g><path style="opacity:1" fill="#81476c" d="M 316.5,196.5 C 316.5,196.833 316.5,197.167 316.5,197.5C 313.134,199.866 310.468,202.866 308.5,206.5C 307.264,207.246 305.93,207.579 304.5,207.5C 302.585,207.784 300.919,207.451 299.5,206.5C 305.359,203.407 311.025,200.074 316.5,196.5 Z"/></g>
<g><path style="opacity:1" fill="#baa2ad" d="M 383.5,202.5 C 388.74,203.449 394.073,203.782 399.5,203.5C 397.022,204.164 394.355,204.497 391.5,204.5C 388.41,204.478 385.743,203.812 383.5,202.5 Z"/></g>
<g><path style="opacity:1" fill="#ab899c" d="M 299.5,206.5 C 300.919,207.451 302.585,207.784 304.5,207.5C 302.034,208.634 299.367,208.801 296.5,208C 297.527,207.487 298.527,206.987 299.5,206.5 Z"/></g>
<g><path style="opacity:1" fill="#80456b" d="M 166.5,222.5 C 171.839,217.839 177.506,213.505 183.5,209.5C 183.833,209.833 184.167,210.167 184.5,210.5C 183.195,213.053 182.195,215.72 181.5,218.5C 176.227,218.969 171.227,220.302 166.5,222.5 Z"/></g>
<g><path style="opacity:1" fill="#a47e94" d="M 166.5,222.5 C 165.998,224.085 164.998,224.585 163.5,224C 164.244,222.961 165.244,222.461 166.5,222.5 Z"/></g>
<g><path style="opacity:1" fill="#a88498" d="M 158.5,226.5 C 160.975,226.747 160.975,227.413 158.5,228.5C 157.537,228.03 157.537,227.363 158.5,226.5 Z"/></g>
<g><path style="opacity:1" fill="#b193a3" d="M 348.5,228.5 C 349.814,230.915 350.481,233.748 350.5,237C 350.167,239.833 349.833,242.667 349.5,245.5C 348.505,239.872 348.171,234.206 348.5,228.5 Z"/></g>
<g><path style="opacity:1" fill="#854c70" d="M 175.5,244.5 C 176.404,245.209 176.737,246.209 176.5,247.5C 172.995,247.306 172.662,246.306 175.5,244.5 Z"/></g>
<g><path style="opacity:1" fill="#9c718b" d="M 175.5,257.5 C 176.434,258.568 176.768,259.901 176.5,261.5C 175.325,261.719 174.325,261.386 173.5,260.5C 174.193,259.482 174.859,258.482 175.5,257.5 Z"/></g>
<g><path style="opacity:1" fill="#c2aeb6" d="M 380.5,260.5 C 396.5,260.5 412.5,260.5 428.5,260.5C 428.831,289.671 428.498,318.671 427.5,347.5C 360.833,347.167 360.833,346.833 427.5,346.5C 427.5,318.167 427.5,289.833 427.5,261.5C 411.658,261.83 395.991,261.496 380.5,260.5 Z"/></g>
<g><path style="opacity:1" fill="#82486d" d="M 152.5,298.5 C 160.154,290.848 168.154,283.515 176.5,276.5C 177.494,280.452 178.16,284.452 178.5,288.5C 174.727,288.263 171.06,288.763 167.5,290C 162.445,292.857 157.445,295.691 152.5,298.5 Z"/></g>
<g><path style="opacity:1" fill="#895375" d="M 179.5,296.5 C 181.099,297.799 181.599,299.465 181,301.5C 179.795,300.929 178.628,300.262 177.5,299.5C 178.193,298.482 178.859,297.482 179.5,296.5 Z"/></g>
<g><path style="opacity:0.94" fill="#7c3e66" d="M 1191.5,334.5 C 1191.5,335.5 1191.5,336.5 1191.5,337.5C 1169.25,364.845 1140.92,383.345 1106.5,393C 1093.81,396.262 1081.14,396.262 1068.5,393C 1051.51,384.911 1045.85,371.744 1051.5,353.5C 1051.17,352.833 1050.83,352.167 1050.5,351.5C 1028.3,364.763 1006.97,379.263 986.5,395C 991.925,409.604 991.425,424.104 985,438.5C 976.093,458.662 964.426,476.996 950,493.5C 932.691,513.48 913.525,531.314 892.5,547C 879.332,556.916 864.665,563.583 848.5,567C 825.617,568.093 817.45,557.593 824,535.5C 832.456,518.918 843.123,503.918 856,490.5C 892.819,454.33 931.986,421.163 973.5,391C 970.508,388.89 967.175,387.557 963.5,387C 949.114,386.359 934.781,386.693 920.5,388C 914.457,385.116 912.957,380.616 916,374.5C 933.351,360.815 949.018,345.481 963,328.5C 971.878,314.382 968.044,308.215 951.5,310C 947.221,311.473 943.221,313.473 939.5,316C 925.917,330.584 911.917,344.918 897.5,359C 882.008,372.248 864.341,381.582 844.5,387C 829.301,391.088 814.634,389.755 800.5,383C 792.484,376.631 788.484,368.297 788.5,358C 789.093,352.385 789.927,346.885 791,341.5C 780.605,357.229 768.105,371.062 753.5,383C 733.298,392.987 722.465,386.82 721,364.5C 706.662,380.844 690.495,395.011 672.5,407C 664.949,411.443 656.949,414.777 648.5,417C 621.663,420.821 608.83,409.321 610,382.5C 611.639,371.24 615.805,361.073 622.5,352C 615.176,351.746 608.176,350.412 601.5,348C 570.074,395.787 533.74,439.787 492.5,480C 477.024,493.814 460.691,506.48 443.5,518C 417.448,534.263 389.115,541.263 358.5,539C 339.741,536.372 324.241,527.872 312,513.5C 304.902,502.891 298.402,491.891 292.5,480.5C 285.532,479.503 278.532,479.17 271.5,479.5C 271.167,464.485 271.501,449.485 272.5,434.5C 297.789,433.509 323.122,433.176 348.5,433.5C 348.5,448.833 348.5,464.167 348.5,479.5C 338.145,479.168 327.812,479.501 317.5,480.5C 329.19,519.344 354.857,534.511 394.5,526C 419.34,518.417 441.673,506.417 461.5,490C 512.327,447.077 555.827,397.91 592,342.5C 594.461,339.139 594.627,335.473 592.5,331.5C 593.926,320.911 599.76,314.244 610,311.5C 615.685,311.356 619.185,314.023 620.5,319.5C 618.86,322.973 616.36,325.64 613,327.5C 612.333,328.5 612.333,329.5 613,330.5C 620.977,335.906 629.477,340.406 638.5,344C 640.617,345.731 642.117,347.898 643,350.5C 643.667,354.833 643.667,359.167 643,363.5C 639.273,371.955 635.273,380.288 631,388.5C 625.745,400.096 629.412,406.429 642,407.5C 649.275,406.742 656.109,404.575 662.5,401C 670.028,396.736 677.028,391.736 683.5,386C 704.874,366.967 723.708,345.8 740,322.5C 763.121,299.41 789.954,293.576 820.5,305C 826.83,308.835 830.83,314.335 832.5,321.5C 832.571,325.262 830.738,327.262 827,327.5C 824.679,327.091 822.513,326.257 820.5,325C 813.761,309.631 802.428,304.631 786.5,310C 763.436,322.041 750.269,340.875 747,366.5C 747.308,367.308 747.808,367.975 748.5,368.5C 752.513,366.494 756.18,363.994 759.5,361C 771.53,349.304 783.196,337.304 794.5,325C 799.214,321.207 804.547,319.874 810.5,321C 813.997,322.323 815.664,324.823 815.5,328.5C 812.734,337.997 810.734,347.664 809.5,357.5C 812.013,376.788 822.68,383.288 841.5,377C 870.956,367.2 895.123,350.034 914,325.5C 927.614,310.192 944.614,301.192 965,298.5C 983.565,300.601 991.232,310.934 988,329.5C 981.618,348.554 969.452,362.721 951.5,372C 959.03,374.402 966.363,377.402 973.5,381C 975.96,382.458 978.127,384.291 980,386.5C 1004.1,367.598 1029.93,351.265 1057.5,337.5C 1065.17,321.659 1077.17,310.493 1093.5,304C 1099.59,303.139 1105.59,303.473 1111.5,305C 1119.67,308.843 1122.17,315.009 1119,323.5C 1114.64,328.934 1109.14,332.767 1102.5,335C 1095.02,336.781 1087.52,338.281 1080,339.5C 1075.75,348.735 1074.09,358.401 1075,368.5C 1076.82,376.991 1081.99,382.158 1090.5,384C 1102.89,384.652 1114.56,381.985 1125.5,376C 1146.47,364.702 1165.47,350.702 1182.5,334C 1185.75,331.882 1188.75,332.049 1191.5,334.5 Z M 1096.5,312.5 C 1098.95,312.085 1100.28,313.085 1100.5,315.5C 1098.17,322.496 1093.5,327.162 1086.5,329.5C 1085.48,328.998 1085.31,328.332 1086,327.5C 1089.02,322.121 1092.52,317.121 1096.5,312.5 Z M 978.5,400.5 C 979.748,406.139 979.248,411.805 977,417.5C 971.944,429.284 965.611,440.284 958,450.5C 934.425,480.076 907.592,506.242 877.5,529C 868.505,535.581 858.672,540.414 848,543.5C 843.596,543.262 841.429,540.928 841.5,536.5C 843.741,528.018 847.574,520.351 853,513.5C 872.167,491.667 892.667,471.167 914.5,452C 935.72,434.574 957.054,417.408 978.5,400.5 Z"/></g>
<g><path style="opacity:1" fill="#9f768e" d="M 152.5,298.5 C 151.746,300.446 150.412,301.279 148.5,301C 149.471,299.519 150.804,298.685 152.5,298.5 Z"/></g>
<g><path style="opacity:1" fill="#ac8b9e" d="M 294.5,301.5 C 295.802,303.028 297.469,304.028 299.5,304.5C 297.5,304.5 295.5,304.5 293.5,304.5C 293.263,303.209 293.596,302.209 294.5,301.5 Z"/></g>
<g><path style="opacity:1" fill="#91607e" d="M 183.5,308.5 C 186.481,311.122 186.148,311.789 182.5,310.5C 182.863,309.817 183.196,309.15 183.5,308.5 Z"/></g>
<g><path style="opacity:1" fill="#83496e" d="M 122.5,306.5 C 124.842,306.775 124.842,307.608 122.5,309C 113.794,315.693 105.461,322.86 97.5,330.5C 96.5109,327.562 95.8442,324.562 95.5,321.5C 105.593,318.291 114.593,313.291 122.5,306.5 Z"/></g>
<g><path style="opacity:1" fill="#c6b5bb" d="M 269.5,311.5 C 270.794,313.048 271.461,315.048 271.5,317.5C 271.167,319.5 270.833,321.5 270.5,323.5C 269.509,319.555 269.176,315.555 269.5,311.5 Z"/></g>
<g><path style="opacity:1" fill="#875073" d="M 352.5,313.5 C 355.518,313.335 358.518,313.502 361.5,314C 357.455,315.773 353.622,317.94 350,320.5C 350.695,318.256 351.529,315.922 352.5,313.5 Z"/></g>
<g><path style="opacity:1" fill="#8d5979" d="M 291.5,328.5 C 298.997,322.919 306.664,317.585 314.5,312.5C 316.421,311.359 318.421,311.192 320.5,312C 310.811,317.51 301.144,323.01 291.5,328.5 Z"/></g>
<g><path style="opacity:1" fill="#8c5878" d="M 372.5,326.5 C 373.573,327.251 373.74,328.251 373,329.5C 371.272,328.648 371.105,327.648 372.5,326.5 Z"/></g>
<g><path style="opacity:1" fill="#92617f" d="M 291.5,328.5 C 291.027,329.906 290.027,330.573 288.5,330.5C 288.973,329.094 289.973,328.427 291.5,328.5 Z"/></g>
<g><path style="opacity:1" fill="#844a6f" d="M 288.5,330.5 C 265.555,347.254 241.888,363.088 217.5,378C 213.809,380.019 210.142,381.686 206.5,383C 215.112,377.387 223.446,371.387 231.5,365C 236.057,360.946 240.057,356.446 243.5,351.5C 255.745,350.044 266.078,344.878 274.5,336C 279.29,334.437 283.956,332.604 288.5,330.5 Z"/></g>
<g><path style="opacity:1" fill="#864e71" d="M 101.5,341.5 C 104.001,341.511 104.168,342.178 102,343.5C 101.536,342.906 101.369,342.239 101.5,341.5 Z"/></g>
<g><path style="opacity:1" fill="#885274" d="M 207.5,341.5 C 212.64,342.412 212.64,343.745 207.5,345.5C 207.094,344.443 207.094,343.109 207.5,341.5 Z"/></g>
<g><path style="opacity:1" fill="#874f72" d="M 366.5,343.5 C 367.532,345.503 367.198,347.503 365.5,349.5C 364.328,349.081 363.328,348.415 362.5,347.5C 364.188,346.479 365.521,345.145 366.5,343.5 Z"/></g>
<g><path style="opacity:1" fill="#b69aa8" d="M 428.5,37.5 C 429.5,184.332 429.833,331.332 429.5,478.5C 428.504,463.676 428.171,448.676 428.5,433.5C 402.672,432.502 376.672,432.169 350.5,432.5C 350.5,432.167 350.5,431.833 350.5,431.5C 376.167,431.5 401.833,431.5 427.5,431.5C 427.5,403.5 427.5,375.5 427.5,347.5C 428.498,318.671 428.831,289.671 428.5,260.5C 428.5,203.167 428.5,145.833 428.5,88.5C 428.5,71.5 428.5,54.5 428.5,37.5 Z"/></g>
<g><path style="opacity:1" fill="#8b5677" d="M 220.5,348.5 C 222.288,348.215 223.955,348.548 225.5,349.5C 223.807,351.027 221.973,352.36 220,353.5C 220.019,351.893 220.185,350.226 220.5,348.5 Z"/></g>
<g><path style="opacity:1" fill="#a47f94" d="M 252.5,383.5 C 253.002,381.915 254.002,381.415 255.5,382C 254.756,383.039 253.756,383.539 252.5,383.5 Z"/></g>
<g><path style="opacity:1" fill="#a37d93" d="M 252.5,383.5 C 252.027,384.906 251.027,385.573 249.5,385.5C 249.973,384.094 250.973,383.427 252.5,383.5 Z"/></g>
<g><path style="opacity:1" fill="#885174" d="M 341.5,383.5 C 342.239,383.369 342.906,383.536 343.5,384C 340.794,386.371 338.461,389.037 336.5,392C 335.056,392.781 333.723,392.614 332.5,391.5C 335.761,389.051 338.761,386.384 341.5,383.5 Z"/></g>
<g><path style="opacity:1" fill="#a57f95" d="M 249.5,385.5 C 248.341,387.25 246.674,388.25 244.5,388.5C 245.659,386.75 247.326,385.75 249.5,385.5 Z"/></g>
<g><path style="opacity:1" fill="#936380" d="M 131.5,388.5 C 133.337,388.639 133.67,389.306 132.5,390.5C 131.702,390.043 131.369,389.376 131.5,388.5 Z"/></g>
<g><path style="opacity:1" fill="#baa1ad" d="M 350.5,386.5 C 350.5,401.5 350.5,416.5 350.5,431.5C 350.5,431.833 350.5,432.167 350.5,432.5C 349.833,432.5 349.167,432.5 348.5,432.5C 348.5,432.167 348.5,431.833 348.5,431.5C 348.829,417.323 348.496,403.323 347.5,389.5C 348.5,388.5 349.5,387.5 350.5,386.5 Z"/></g>
<g><path style="opacity:1" fill="#a37d93" d="M 244.5,388.5 C 244.027,389.906 243.027,390.573 241.5,390.5C 241.973,389.094 242.973,388.427 244.5,388.5 Z"/></g>
<g><path style="opacity:1" fill="#7c3f66" d="M 347.5,389.5 C 348.496,403.323 348.829,417.323 348.5,431.5C 327.327,431.831 306.327,431.497 285.5,430.5C 309.883,422.318 330.55,408.652 347.5,389.5 Z"/></g>
<g><path style="opacity:1" fill="#a58096" d="M 241.5,390.5 C 240.998,392.085 239.998,392.585 238.5,392C 239.244,390.961 240.244,390.461 241.5,390.5 Z"/></g>
<g><path style="opacity:1" fill="#a68196" d="M 233.5,395.5 C 234.002,393.915 235.002,393.415 236.5,394C 235.756,395.039 234.756,395.539 233.5,395.5 Z"/></g>
<g><path style="opacity:1" fill="#a58195" d="M 233.5,395.5 C 233.027,396.906 232.027,397.573 230.5,397.5C 230.973,396.094 231.973,395.427 233.5,395.5 Z"/></g>
<g><path style="opacity:1" fill="#885174" d="M 141.5,397.5 C 144.797,397.329 145.131,397.995 142.5,399.5C 141.702,399.043 141.369,398.376 141.5,397.5 Z"/></g>
<g><path style="opacity:1" fill="#a88498" d="M 230.5,397.5 C 229.998,399.085 228.998,399.585 227.5,399C 228.244,397.961 229.244,397.461 230.5,397.5 Z"/></g>
<g><path style="opacity:1" fill="#a68196" d="M 222.5,402.5 C 223.002,400.915 224.002,400.415 225.5,401C 224.756,402.039 223.756,402.539 222.5,402.5 Z"/></g>
<g><path style="opacity:1" fill="#a68397" d="M 222.5,402.5 C 221.998,404.085 220.998,404.585 219.5,404C 220.244,402.961 221.244,402.461 222.5,402.5 Z"/></g>
<g><path style="opacity:1" fill="#875073" d="M 167.5,398.5 C 168.239,398.369 168.906,398.536 169.5,399C 165.534,401.964 161.867,405.297 158.5,409C 156.316,409.442 154.316,408.942 152.5,407.5C 158.052,405.232 163.052,402.232 167.5,398.5 Z"/></g>
<g><path style="opacity:1" fill="#a88498" d="M 211.5,409.5 C 212.002,407.915 213.002,407.415 214.5,408C 213.756,409.039 212.756,409.539 211.5,409.5 Z"/></g>
<g><path style="opacity:1" fill="#a98699" d="M 211.5,409.5 C 210.998,411.085 209.998,411.585 208.5,411C 209.244,409.961 210.244,409.461 211.5,409.5 Z"/></g>
<g><path style="opacity:1" fill="#82486d" d="M 286.5,410.5 C 287.239,410.369 287.906,410.536 288.5,411C 282.833,415.333 277.833,420.333 273.5,426C 268.126,428.74 262.459,430.074 256.5,430C 267.077,424.223 277.077,417.723 286.5,410.5 Z"/></g>
<g><path style="opacity:1" fill="#8c5878" d="M 184.5,416.5 C 185.239,416.369 185.906,416.536 186.5,417C 184.393,418.264 183.393,420.097 183.5,422.5C 181.304,422.435 179.304,421.768 177.5,420.5C 180.05,419.396 182.383,418.063 184.5,416.5 Z"/></g>
<g><path style="opacity:1" fill="#8e5b7b" d="M 219.5,428.5 C 220.404,429.209 220.737,430.209 220.5,431.5C 215.548,431.81 215.214,430.81 219.5,428.5 Z"/></g>
<g><path style="opacity:1" fill="#ab899c" d="M 183.5,430.5 C 184.756,430.461 185.756,430.961 186.5,432C 161.997,432.83 137.663,432.663 113.5,431.5C 137.006,431.831 160.339,431.498 183.5,430.5 Z"/></g>
<g><path style="opacity:1" fill="#ab899c" d="M 285.5,430.5 C 306.327,431.497 327.327,431.831 348.5,431.5C 348.5,431.833 348.5,432.167 348.5,432.5C 326.497,432.667 304.497,432.5 282.5,432C 283.527,431.487 284.527,430.987 285.5,430.5 Z"/></g>
<g><path style="opacity:0.989" fill="#7c3e66" d="M 190.5,433.5 C 190.5,448.833 190.5,464.167 190.5,479.5C 164.833,479.5 139.167,479.5 113.5,479.5C 113.5,464.167 113.5,448.833 113.5,433.5C 139.167,433.5 164.833,433.5 190.5,433.5 Z"/></g>
<g><path style="opacity:1" fill="#bda6b0" d="M 190.5,433.5 C 191.167,433.5 191.833,433.5 192.5,433.5C 192.5,448.833 192.5,464.167 192.5,479.5C 191.833,484.833 191.167,484.833 190.5,479.5C 190.5,464.167 190.5,448.833 190.5,433.5 Z"/></g>
<g><path style="opacity:0.988" fill="#7c3e66" d="M 192.5,433.5 C 217.994,439.365 243.66,440.032 269.5,435.5C 269.5,450.167 269.5,464.833 269.5,479.5C 243.833,479.5 218.167,479.5 192.5,479.5C 192.5,464.167 192.5,448.833 192.5,433.5 Z"/></g>
<g><path style="opacity:1" fill="#bda5b0" d="M 348.5,433.5 C 349.167,433.5 349.833,433.5 350.5,433.5C 350.5,448.833 350.5,464.167 350.5,479.5C 349.833,484.833 349.167,484.833 348.5,479.5C 348.5,464.167 348.5,448.833 348.5,433.5 Z"/></g>
<g><path style="opacity:0.989" fill="#7c3e66" d="M 350.5,433.5 C 376.167,433.5 401.833,433.5 427.5,433.5C 427.5,448.833 427.5,464.167 427.5,479.5C 401.833,479.5 376.167,479.5 350.5,479.5C 350.5,464.167 350.5,448.833 350.5,433.5 Z"/></g>
<g><path style="opacity:1" fill="#c5b2b9" d="M 427.5,433.5 C 427.833,433.5 428.167,433.5 428.5,433.5C 428.171,448.676 428.504,463.676 429.5,478.5C 429.5,478.833 429.5,479.167 429.5,479.5C 428.833,484.833 428.167,484.833 427.5,479.5C 427.5,464.167 427.5,448.833 427.5,433.5 Z"/></g>
</svg>
